<?xml version="1.0" standalone="no"?>
<!DOCTYPE svg PUBLIC "-//W3C//DTD SVG 20010904//EN"
        "http://www.w3.org/TR/2001/REC-SVG-20010904/DTD/svg10.dtd">
<svg version="1.0" xmlns="http://www.w3.org/2000/svg"
     width="600.000000pt" height="600.000000pt" viewBox="0 0 600.000000 600.000000"
     preserveAspectRatio="xMidYMid meet">
    <metadata>
        Created by potrace 1.14, written by Peter Selinger 2001-2017
    </metadata>
    <g transform="translate(0.000000,600.000000) scale(0.100000,-0.100000)"
       fill="#000000" stroke="none">
        <path d="M2815 5790 c-361 -19 -685 -99 -1034 -253 -557 -246 -1044 -678
-1352 -1198 -196 -333 -315 -660 -384 -1059 -58 -334 -41 -809 40 -1166 5 -21
7 -21 82 16 165 81 300 107 465 89 237 -25 400 -107 563 -281 87 -93 175 -243
159 -270 -4 -7 -28 -8 -67 -3 -68 7 -97 19 -97 39 0 8 -8 24 -19 37 -17 21
-21 22 -50 9 -27 -11 -37 -10 -71 5 -31 14 -54 17 -106 12 -37 -4 -69 -9 -73
-12 -3 -3 -8 -26 -11 -51 -6 -57 -24 -58 -28 -2 -3 49 -22 68 -66 68 -60 0
-60 17 -1 25 32 4 53 10 49 15 -5 4 -41 19 -80 34 -54 20 -77 24 -96 17 -15
-6 -31 -5 -42 1 -9 5 -35 11 -57 12 -22 2 -54 13 -71 26 -19 14 -39 20 -55 17
-26 -5 -67 30 -79 66 -7 21 -37 22 -54 2 -8 -9 -30 -15 -57 -15 -34 0 -50 6
-70 26 -14 14 -28 23 -31 20 -9 -10 45 -179 105 -331 74 -186 164 -358 285
-542 l100 -152 46 21 c139 61 181 70 347 75 179 6 226 -2 362 -58 114 -48 268
-157 249 -176 -8 -8 -77 -7 -146 2 -38 5 -51 2 -83 -19 l-37 -25 -32 19 c-60
35 -129 53 -181 47 -26 -4 -59 -2 -73 3 -19 8 -35 6 -60 -6 -33 -16 -34 -16
-69 15 -20 17 -43 31 -53 32 -9 0 -42 4 -72 9 -39 5 -64 4 -88 -6 l-34 -14 22
-30 c48 -68 292 -308 402 -396 130 -105 393 -284 416 -284 22 0 188 68 262
107 109 58 280 177 367 255 192 172 371 441 462 693 l29 80 -42 -1 c-23 0 -53
-8 -67 -17 -25 -17 -27 -16 -55 8 -17 15 -37 24 -48 21 -33 -8 -62 11 -78 53
-9 23 -12 43 -7 47 20 12 149 15 219 5 41 -6 84 -12 94 -14 16 -2 23 10 38 68
29 110 46 228 58 390 8 103 17 163 30 192 l19 42 -87 3 -86 3 -65 200 c-73
227 -78 229 -80 29 -1 -67 -4 -149 -7 -183 l-7 -62 -234 -139 c-128 -77 -235
-140 -238 -140 -3 0 -5 104 -5 231 l0 230 27 47 c15 26 109 179 209 340 l182
293 7 137 c15 302 54 563 122 812 77 286 229 547 398 685 56 46 68 43 155 -45
97 -97 174 -206 230 -325 146 -312 219 -646 239 -1091 l8 -170 38 -59 c20 -32
115 -186 211 -342 l174 -282 0 -225 c0 -124 -3 -227 -7 -229 -8 -5 -337 190
-424 250 -26 18 -49 40 -53 48 -3 9 -7 74 -7 143 -1 70 -4 156 -8 192 l-6 65
-53 -165 c-29 -91 -58 -181 -64 -200 -6 -19 -16 -38 -22 -42 -6 -4 -46 -8 -88
-8 l-77 0 18 -42 c12 -28 21 -82 26 -153 10 -178 38 -355 72 -458 11 -36 19
-47 30 -43 8 4 47 11 86 18 117 19 334 -17 361 -61 5 -7 -4 -11 -24 -11 -16 0
-39 -5 -49 -12 -16 -10 -26 -7 -60 16 l-41 29 -41 -38 c-30 -26 -48 -36 -65
-32 -15 2 -39 -6 -66 -24 -24 -16 -49 -29 -55 -29 -17 0 -18 7 23 -95 95 -237
228 -432 415 -608 154 -146 315 -250 534 -345 117 -50 121 -50 206 6 41 27 99
65 129 84 30 19 76 52 101 74 26 21 82 66 124 99 91 69 219 196 347 342 79 92
87 103 65 103 -24 0 -84 -20 -119 -40 -12 -7 -33 -6 -63 2 -37 10 -52 10 -78
-1 -115 -48 -216 -58 -349 -35 -25 4 -53 0 -90 -14 -29 -11 -69 -26 -88 -33
-19 -6 -45 -17 -58 -22 -17 -8 -31 -6 -57 6 -20 9 -45 17 -57 17 -18 0 -19 2
-7 17 28 33 171 133 242 168 114 56 208 75 367 75 116 0 149 -4 225 -26 50
-14 112 -36 138 -49 l49 -23 41 54 c155 200 326 536 421 829 36 110 37 108
-31 99 -32 -3 -69 -12 -82 -19 -20 -10 -31 -10 -57 1 -41 17 -58 11 -116 -43
-38 -35 -54 -43 -85 -43 -21 0 -49 -7 -62 -16 -13 -9 -42 -22 -65 -29 -41 -13
-41 -13 -39 -60 1 -26 4 -49 6 -51 3 -3 58 -9 122 -14 64 -5 119 -11 121 -13
6 -6 -55 -15 -158 -23 -99 -8 -93 -1 -103 -109 -3 -38 -9 -86 -13 -105 l-6
-35 -7 50 c-4 28 -8 74 -8 103 -2 86 -5 89 -125 97 -171 12 -160 25 37 41 l77
6 0 31 c0 18 3 49 6 69 6 36 5 38 -19 38 -14 0 -46 -16 -71 -35 -26 -19 -55
-35 -66 -35 -10 0 -39 -11 -64 -25 -25 -14 -60 -25 -78 -24 -36 1 -154 -16
-184 -27 -10 -4 -30 -16 -43 -26 -25 -19 -66 -24 -76 -9 -3 5 6 18 20 29 17
14 25 30 25 52 0 57 41 121 140 220 107 107 198 165 333 211 219 74 421 63
622 -35 61 -30 112 -52 114 -50 6 5 59 305 66 370 38 369 14 727 -71 1065 -83
332 -244 693 -421 947 -228 327 -491 589 -803 801 -185 126 -293 186 -477 267
-423 187 -896 270 -1388 244z m-300 -411 c5 -66 12 -112 19 -115 6 -2 65 -7
131 -11 68 -5 120 -12 120 -18 0 -6 -46 -13 -105 -16 -58 -3 -115 -9 -127 -13
-22 -7 -24 -16 -39 -168 -6 -68 -19 -89 -28 -45 -3 12 -7 56 -10 97 -5 86 -11
106 -34 115 -9 3 -64 10 -121 15 -152 14 -147 18 48 39 51 6 95 12 97 14 2 2
6 37 9 78 14 176 30 187 40 28z m2122 -614 l8 -90 50 -6 c28 -3 85 -9 128 -14
43 -4 77 -8 75 -10 -2 -2 -54 -8 -117 -14 -62 -6 -119 -15 -126 -21 -8 -6 -16
-44 -20 -88 -9 -113 -16 -165 -22 -159 -3 3 -9 59 -14 123 -5 64 -11 119 -14
122 -3 3 -54 10 -113 15 -59 5 -118 11 -132 14 -23 5 -24 6 -5 13 11 5 47 9
80 10 65 2 162 14 169 21 3 3 8 36 11 74 3 39 9 95 12 125 l6 55 8 -40 c5 -22
12 -80 16 -130z m-2753 -462 c3 -21 6 -50 6 -65 0 -30 5 -33 103 -43 72 -8 65
-25 -12 -25 -80 0 -91 -11 -98 -98 -3 -39 -9 -72 -13 -72 -4 0 -10 33 -14 72
-4 40 -11 77 -17 83 -5 5 -50 12 -99 13 -50 2 -90 7 -90 12 0 4 38 10 84 14
105 8 116 12 116 45 0 42 12 101 20 101 4 0 10 -17 14 -37z m-1524 -553 l0
-49 53 -3 52 -4 -52 -8 c-53 -9 -53 -9 -53 -45 0 -20 -5 -43 -10 -51 -7 -11
-10 -1 -10 36 l0 51 -62 9 -63 8 50 4 c64 4 75 15 75 69 0 27 4 42 10 38 6 -3
10 -28 10 -55z m4852 -687 c6 -7 29 -13 51 -13 52 0 37 -17 -18 -22 -40 -3
-40 -3 -44 -48 l-4 -45 -11 45 c-11 44 -13 45 -54 48 -56 4 -54 22 2 22 l44 0
8 58 9 57 3 -45 c2 -24 8 -50 14 -57z m-3503 -105 l1 -38 50 0 c28 0 50 -4 50
-10 0 -5 -22 -10 -49 -10 l-49 0 -8 -62 -8 -63 -9 63 -9 62 -48 0 c-27 0 -52
5 -55 10 -4 6 15 10 49 10 55 0 56 1 56 29 0 16 3 44 7 62 7 33 7 33 14 9 4
-14 7 -42 8 -62z m106 -1099 c119 -21 273 -104 345 -186 22 -25 40 -49 40 -53
0 -4 -21 -3 -47 2 -27 5 -67 7 -91 4 -51 -7 -103 12 -147 53 -46 44 -65 50
-105 36 -30 -10 -42 -10 -83 6 -35 14 -53 16 -67 9 -29 -16 -37 -12 -58 24
-13 22 -37 42 -66 55 -77 33 -59 49 69 60 86 8 116 6 210 -10z m2625 1 c19 -5
54 -14 78 -20 23 -6 42 -15 42 -20 0 -5 -17 -21 -38 -35 -36 -23 -41 -24 -98
-13 -59 11 -64 10 -129 -20 -37 -18 -74 -32 -82 -32 -7 0 -32 -9 -54 -20 -21
-11 -55 -20 -73 -18 -26 1 -43 -6 -70 -30 -35 -31 -40 -32 -126 -32 -71 0 -90
3 -90 14 0 16 84 94 145 135 132 89 348 129 495 91z"/>
        <path d="M2913 3723 c-125 -52 -178 -128 -178 -253 1 -116 51 -198 155 -250
63 -32 159 -33 220 -1 97 50 149 125 157 226 6 76 -9 133 -50 186 -69 90 -208
132 -304 92z"/>
    </g>
</svg>
